<svg width="32" height="32" viewBox="0 0 32 32" fill="none" xmlns="http://www.w3.org/2000/svg">
  <g fill="currentColor">
    <!-- Main droplet -->
    <path d="M16 28 C20 28, 23 25, 23 21 C23 17, 16 8, 16 8 S9 17, 9 21 C9 25, 12 28, 16 28 Z"
          fill="currentColor" opacity="0.8"/>

    <!-- Droplet highlight -->
    <ellipse cx="18" cy="18" rx="2" ry="3" fill="currentColor" opacity="0.3"/>

    <!-- Small bubbles -->
    <circle cx="6" cy="12" r="2.5" fill="none" stroke="currentColor" stroke-width="1.5" opacity="0.6"/>
    <circle cx="6" cy="12" r="1" fill="currentColor" opacity="0.3"/>

    <circle cx="26" cy="10" r="1.8" fill="none" stroke="currentColor" stroke-width="1.2" opacity="0.7"/>
    <circle cx="26" cy="10" r="0.7" fill="currentColor" opacity="0.4"/>

    <circle cx="4" cy="6" r="1.2" fill="none" stroke="currentColor" stroke-width="1" opacity="0.5"/>
    <circle cx="4" cy="6" r="0.4" fill="currentColor" opacity="0.2"/>

    <circle cx="28" cy="18" r="2" fill="none" stroke="currentColor" stroke-width="1.3" opacity="0.6"/>
    <circle cx="28" cy="18" r="0.8" fill="currentColor" opacity="0.3"/>

    <!-- Surface interaction -->
    <rect x="0" y="30" width="32" height="2" fill="currentColor" opacity="0.4"/>

    <!-- Splash effects -->
    <g opacity="0.5">
      <path d="M8 26 Q6 24, 4 26" stroke="currentColor" stroke-width="1" fill="none"/>
      <path d="M24 26 Q26 24, 28 26" stroke="currentColor" stroke-width="1" fill="none"/>
      <circle cx="4" cy="26" r="0.5" fill="currentColor"/>
      <circle cx="28" cy="26" r="0.5" fill="currentColor"/>
    </g>

    <!-- Motion lines -->
    <g opacity="0.3">
      <path d="M10 4 Q12 6, 14 4" stroke="currentColor" stroke-width="0.8" fill="none"/>
      <path d="M18 4 Q20 6, 22 4" stroke="currentColor" stroke-width="0.8" fill="none"/>
    </g>
  </g>
</svg>