<svg width="32" height="32" viewBox="0 0 32 32" fill="none" xmlns="http://www.w3.org/2000/svg">
  <g fill="currentColor">
    <!-- Microfluidic channels -->
    <rect x="2" y="14" width="28" height="4" rx="2" fill="none" stroke="currentColor" stroke-width="1.5" opacity="0.7"/>

    <!-- Branch channels -->
    <path d="M8 16 L4 10 Q2 8, 4 6 L8 6" stroke="currentColor" stroke-width="1.5" fill="none" opacity="0.6"/>
    <path d="M8 16 L4 22 Q2 24, 4 26 L8 26" stroke="currentColor" stroke-width="1.5" fill="none" opacity="0.6"/>

    <path d="M24 16 L28 10 Q30 8, 28 6 L24 6" stroke="currentColor" stroke-width="1.5" fill="none" opacity="0.6"/>
    <path d="M24 16 L28 22 Q30 24, 28 26 L24 26" stroke="currentColor" stroke-width="1.5" fill="none" opacity="0.6"/>

    <!-- Flow particles -->
    <circle cx="6" cy="16" r="1" fill="currentColor" opacity="0.8"/>
    <circle cx="12" cy="16" r="0.8" fill="currentColor" opacity="0.6"/>
    <circle cx="18" cy="16" r="1" fill="currentColor" opacity="0.8"/>
    <circle cx="24" cy="16" r="0.8" fill="currentColor" opacity="0.6"/>

    <!-- Branch flow particles -->
    <circle cx="4" cy="8" r="0.6" fill="currentColor" opacity="0.5"/>
    <circle cx="4" cy="24" r="0.6" fill="currentColor" opacity="0.5"/>
    <circle cx="28" cy="8" r="0.6" fill="currentColor" opacity="0.5"/>
    <circle cx="28" cy="24" r="0.6" fill="currentColor" opacity="0.5"/>

    <!-- Mixing zones -->
    <g opacity="0.4">
      <circle cx="10" cy="16" r="3" fill="none" stroke="currentColor" stroke-width="0.8" stroke-dasharray="2,1"/>
      <circle cx="22" cy="16" r="3" fill="none" stroke="currentColor" stroke-width="0.8" stroke-dasharray="2,1"/>
    </g>

    <!-- Microstructures -->
    <g opacity="0.3">
      <rect x="14" y="13" width="4" height="1" fill="currentColor"/>
      <rect x="14" y="18" width="4" height="1" fill="currentColor"/>
      <rect x="15" y="15" width="1" height="2" fill="currentColor"/>
      <rect x="17" y="15" width="1" height="2" fill="currentColor"/>
    </g>

    <!-- Flow direction arrows -->
    <g opacity="0.5">
      <path d="M26 15 L30 15 M28 13 L30 15 L28 17" stroke="currentColor" stroke-width="1" fill="none"/>
      <path d="M6 7 L6 3 M4 5 L6 3 L8 5" stroke="currentColor" stroke-width="1" fill="none"/>
      <path d="M6 25 L6 29 M4 27 L6 29 L8 27" stroke="currentColor" stroke-width="1" fill="none"/>
    </g>
  </g>
</svg>