<svg width="32" height="32" viewBox="0 0 32 32" fill="none" xmlns="http://www.w3.org/2000/svg">
  <g fill="currentColor">
    <!-- Surface layers -->
    <rect x="2" y="8" width="28" height="2" rx="1" opacity="0.3"/>
    <rect x="2" y="12" width="28" height="2" rx="1" opacity="0.5"/>
    <rect x="2" y="16" width="28" height="2" rx="1" opacity="0.7"/>
    <rect x="2" y="20" width="28" height="2" rx="1"/>

    <!-- Interface connection points -->
    <circle cx="6" cy="9" r="1.5"/>
    <circle cx="16" cy="13" r="1.5"/>
    <circle cx="26" cy="17" r="1.5"/>
    <circle cx="12" cy="21" r="1.5"/>

    <!-- Connection lines -->
    <path d="M6 9 L16 13 L26 17" stroke="currentColor" stroke-width="1" fill="none" opacity="0.6"/>
    <path d="M16 13 L12 21" stroke="currentColor" stroke-width="1" fill="none" opacity="0.6"/>

    <!-- Molecular structure overlay -->
    <g opacity="0.4">
      <circle cx="8" cy="4" r="1"/>
      <circle cx="14" cy="6" r="1"/>
      <circle cx="20" cy="4" r="1"/>
      <circle cx="24" cy="6" r="1"/>
      <path d="M8 4 L14 6 L20 4 L24 6" stroke="currentColor" stroke-width="0.5" fill="none"/>
    </g>
  </g>
</svg>