<svg width="32" height="32" viewBox="0 0 32 32" fill="none" xmlns="http://www.w3.org/2000/svg">
  <g fill="currentColor">
    <!-- Fluid flow lines -->
    <path d="M2 16 Q8 12, 16 16 T30 16" stroke="currentColor" stroke-width="2" fill="none" opacity="0.8"/>
    <path d="M2 20 Q8 16, 16 20 T30 20" stroke="currentColor" stroke-width="2" fill="none" opacity="0.6"/>
    <path d="M2 12 Q8 8, 16 12 T30 12" stroke="currentColor" stroke-width="2" fill="none" opacity="0.4"/>

    <!-- Temperature gradient indicators -->
    <g opacity="0.7">
      <circle cx="6" cy="16" r="2" fill="none" stroke="currentColor" stroke-width="1"/>
      <circle cx="6" cy="16" r="1.2" fill="none" stroke="currentColor" stroke-width="0.8"/>
      <circle cx="6" cy="16" r="0.6" fill="currentColor"/>
    </g>

    <g opacity="0.9">
      <circle cx="16" cy="16" r="2.5" fill="none" stroke="currentColor" stroke-width="1"/>
      <circle cx="16" cy="16" r="1.7" fill="none" stroke="currentColor" stroke-width="0.8"/>
      <circle cx="16" cy="16" r="1" fill="currentColor"/>
    </g>

    <g opacity="0.5">
      <circle cx="26" cy="16" r="1.5" fill="none" stroke="currentColor" stroke-width="1"/>
      <circle cx="26" cy="16" r="0.8" fill="currentColor"/>
    </g>

    <!-- Heat transfer arrows -->
    <path d="M12 6 L14 8 L12 10 M13 8 L13 4" stroke="currentColor" stroke-width="1.5" fill="none" opacity="0.6"/>
    <path d="M20 6 L22 8 L20 10 M21 8 L21 4" stroke="currentColor" stroke-width="1.5" fill="none" opacity="0.6"/>
    <path d="M12 26 L14 24 L12 22 M13 24 L13 28" stroke="currentColor" stroke-width="1.5" fill="none" opacity="0.6"/>
    <path d="M20 26 L22 24 L20 22 M21 24 L21 28" stroke="currentColor" stroke-width="1.5" fill="none" opacity="0.6"/>
  </g>
</svg>