<?xml version="1.0" encoding="UTF-8"?>
<svg id="_图层_1" data-name="图层_1" xmlns="http://www.w3.org/2000/svg" version="1.1" xmlns:xlink="http://www.w3.org/1999/xlink" viewBox="0 0 330 330">
  <!-- Generator: Adobe Illustrator 29.5.1, SVG Export Plug-In . SVG Version: 2.1.0 Build 141)  -->
  <defs>
    <style>
      .st0 {
        fill: url(#_未命名的渐变_5);
      }

      .st1 {
        fill: url(#_未命名的渐变_3);
      }

      .st2 {
        fill: url(#_未命名的渐变);
      }

      .st3 {
        fill: url(#_未命名的渐变_4);
      }

      .st4 {
        fill: #036eb8;
      }

      .st5 {
        fill: url(#_未命名的渐变_2);
      }
    </style>
    <linearGradient id="_未命名的渐变" data-name="未命名的渐变" x1="99.41" y1="140.81" x2="221.09" y2="144.34" gradientTransform="translate(0 303) scale(1 -1)" gradientUnits="userSpaceOnUse">
      <stop offset="0" stop-color="#c30d23"/>
      <stop offset="1" stop-color="#036eb8"/>
    </linearGradient>
    <linearGradient id="_未命名的渐变_2" data-name="未命名的渐变 2" x1="97.91" y1="192.31" x2="219.59" y2="195.83" gradientTransform="translate(0 303) scale(1 -1)" gradientUnits="userSpaceOnUse">
      <stop offset="0" stop-color="#c30d23"/>
      <stop offset="1" stop-color="#036eb8"/>
    </linearGradient>
    <linearGradient id="_未命名的渐变_3" data-name="未命名的渐变 3" x1="101.03" y1="84.7" x2="222.7" y2="88.22" gradientTransform="translate(0 303) scale(1 -1)" gradientUnits="userSpaceOnUse">
      <stop offset="0" stop-color="#c30d23"/>
      <stop offset="1" stop-color="#036eb8"/>
    </linearGradient>
    <linearGradient id="_未命名的渐变_4" data-name="未命名的渐变 4" x1="101.11" y1="81.93" x2="222.78" y2="85.45" gradientTransform="translate(0 303) scale(1 -1)" gradientUnits="userSpaceOnUse">
      <stop offset="0" stop-color="#c30d23"/>
      <stop offset="1" stop-color="#036eb8"/>
    </linearGradient>
    <linearGradient id="_未命名的渐变_5" data-name="未命名的渐变 5" x1="101.61" y1="64.46" x2="223.29" y2="67.99" gradientTransform="translate(0 303) scale(1 -1)" gradientUnits="userSpaceOnUse">
      <stop offset="0" stop-color="#c30d23"/>
      <stop offset="1" stop-color="#036eb8"/>
    </linearGradient>
  </defs>
  <path class="st4" d="M87.18,121.65c-.71,3.17-2.31,5.64-4.81,7.4-2.5,1.76-5.34,2.43-8.52,2.01-3.53-.49-7.05-.74-10.58-.74-12.13,0-21.54,3.46-28.24,10.37-6.7,6.98-10.05,15.13-10.05,24.44,0,7.34,2.33,13.19,6.98,17.56,4.58,4.3,10.79,6.45,18.62,6.45,4.79,0,9.91-.85,15.34-2.54,4.09-1.13,7.63-.48,10.63,1.96,3,2.43,4.28,5.77,3.86,10v.11c-10.65,4.72-21.16,7.09-31.52,7.09-12.98,0-23.48-3.81-31.52-11.42-8.04-7.54-12.06-17.42-12.06-29.62,0-14.88,5.43-27.08,16.29-36.6,10.86-9.52,24.89-14.28,42.1-14.28,7.54,0,15.66,1.09,24.33,3.28l-.85,4.55v-.02Z"/>
  <path class="st4" d="M287.55,190.2h37.13l-3.38,15.66h-49.19c-1.62,0-2.89-.49-3.81-1.48-.92-.92-1.23-2.43-.95-4.55l10.89-78.39c.35-2.19,1.32-3.98,2.91-5.4,1.59-1.41,3.47-2.12,5.66-2.12h11.32l-10.58,76.27h0Z"/>
  <path class="st2" d="M248.1,125.67c-8.18-7.54-18.72-11.32-31.63-11.32-15.02,0-27.47,4.76-37.34,14.28-21.21,20.16-8.27,34.83-23.72,50.99-6.14,6.35-13.61,9.52-22.43,9.52-7.47,0-13.58-2.4-18.3-7.19-4.73-4.79-7.09-10.97-7.09-18.51,0-8.96,3.1-16.64,9.31-23.06,6.2-6.42,13.57-9.63,22.11-9.63,7.41,0,13.5,2.4,18.3,7.19,2.36,2.32,4.13,4.96,5.35,7.9,2.32-6.78,6.03-12.91,11.09-18.33-.59-.62-1.2-1.24-1.84-1.84-8.18-7.54-18.72-11.32-31.63-11.32-15.02,0-27.47,4.76-37.34,14.28-9.94,9.45-14.91,21.33-14.91,35.65,0,11.99,4.23,21.9,12.69,29.73,8.46,7.76,19.18,11.64,32.16,11.64,14.95,0,27.22-4.73,36.81-14.18,20.01-19.57,8.01-35.17,23.4-51.09,6.2-6.42,13.57-9.63,22.11-9.63,7.41,0,13.5,2.4,18.3,7.19,4.87,4.8,7.3,10.9,7.3,18.3,0,9.17-3.07,16.96-9.2,23.38-6.14,6.35-13.61,9.52-22.43,9.52-7.47,0-13.58-2.4-18.3-7.19-2.27-2.3-3.98-4.93-5.16-7.87-2.22,6.83-5.73,12.94-10.49,18.28.54.56,1.1,1.11,1.69,1.66,8.46,7.76,19.18,11.64,32.16,11.64,14.95,0,27.22-4.73,36.81-14.18,9.59-9.38,14.39-21.54,14.39-36.5,0-11.99-4.06-21.75-12.17-29.3h0Z"/>
  <path class="st5" d="M245.26,84.46c8.67,8.54,5.1,27.56-7.48,50.29.56.83,1.14,1.64,1.71,2.41,2.26,3.06,4.77,5.93,7.05,8.98,21.56-33.17,29.32-62.11,17.22-74.03-16.75-16.5-65.68,5.4-113.05,49.29.99.57,1.98,1.14,2.96,1.72,38.64-34.96,77.93-52.11,91.58-38.66h0Z"/>
  <g>
    <path class="st1" d="M156.2,226.74v.03c-.08.62-.19,1.1-.3,1.59l-.07.32c-.23,1.16-.53,2.14-.8,3.01l-.07.23c-.26.91-.6,1.79-.91,2.56l-.14.35c-.44,1.16-.85,2.08-1.29,2.94l-.04.08c-.37.74-.74,1.49-1.12,2.21l-.18.32-1.14,1.86c17.35-11.11,35.99-26.19,54.01-44.34-2.16-1.59-4.25-3.28-6.33-4.99-1.03-.84-2.14-1.73-3.2-2.68-12.78,12.76-25.91,23.66-38.42,32.24.15,1.39.15,2.81-.02,4.26h.02Z"/>
    <path class="st3" d="M107.09,250.96c3.36-2.63,6.83-5.46,9.21-8.63-10.65,2.7-19.16,1.91-24.18-3.04-9.33-9.19-4.5-30.5,10.5-55.53-1.1-1.08-2.13-2.21-3.07-3.42-23.33,34.65-32.09,65.23-19.56,77.57,2.02,1.99,4.52,3.42,7.43,4.32l13.83-7.46c1.8-1.14,3.71-2.39,5.83-3.82h0Z"/>
  </g>
  <path class="st0" d="M150.52,226.05c-.07.59-.19,1-.29,1.5-.2.98-.47,1.84-.73,2.71-.25.89-.58,1.69-.9,2.51-.31.82-.64,1.62-1.04,2.37-.38.76-.75,1.52-1.14,2.26l-1.3,2.12c-.82,1.43-1.88,2.67-2.84,3.95-4.02,4.99-8.91,8.71-13.92,11.51-4.98,2.91-10.29,4.56-15.42,6.01-2.63.56-5.22,1.08-7.79,1.54l-7.75.85,6.77-3.65c2.16-1.36,4.26-2.75,6.31-4.13,3.92-3.06,7.66-6.15,10.42-9.83,2.84-3.57,4.96-7.4,6-11.21.2-.97.53-1.87.6-2.82.33-3.82-2.22-18.28,10.75-18.97,6.76-.36,13.26,5.19,12.28,13.27h-.01Z"/>
</svg>