<?xml version="1.0" encoding="UTF-8"?>
<svg id="artwork" xmlns="http://www.w3.org/2000/svg" version="1.1" viewBox="0 0 135 40">
  <!-- Generator: Adobe Illustrator 29.5.1, SVG Export Plug-In . SVG Version: 2.1.0 Build 141)  -->
  <defs>
    <style>
      .st0 {
        fill: #ea4335;
      }

      .st1 {
        fill: #fff;
      }

      .st2 {
        fill: #a6a6a6;
      }

      .st3 {
        fill: #fbbc04;
      }

      .st4 {
        fill: #4285f4;
      }

      .st5 {
        fill: #34a853;
      }
    </style>
  </defs>
  <g>
    <rect width="135" height="40" rx="5" ry="5"/>
    <path class="st2" d="M130,.8c2.32,0,4.2,1.88,4.2,4.2v30c0,2.32-1.88,4.2-4.2,4.2H5c-2.32,0-4.2-1.88-4.2-4.2V5C.8,2.68,2.68.8,5,.8h125M130,0H5C2.25,0,0,2.25,0,5v30c0,2.75,2.25,5,5,5h125c2.75,0,5-2.25,5-5V5C135,2.25,132.75,0,130,0h0Z"/>
    <path class="st1" d="M68.14,21.75c-2.35,0-4.27,1.79-4.27,4.25s1.92,4.25,4.27,4.25,4.27-1.8,4.27-4.25-1.92-4.25-4.27-4.25ZM68.14,28.58c-1.29,0-2.4-1.06-2.4-2.58s1.11-2.58,2.4-2.58,2.4,1.05,2.4,2.58-1.11,2.58-2.4,2.58ZM58.82,21.75c-2.35,0-4.27,1.79-4.27,4.25s1.92,4.25,4.27,4.25,4.27-1.8,4.27-4.25-1.92-4.25-4.27-4.25ZM58.82,28.58c-1.29,0-2.4-1.06-2.4-2.58s1.11-2.58,2.4-2.58,2.4,1.05,2.4,2.58-1.11,2.58-2.4,2.58ZM47.74,23.06v1.8h4.32c-.13,1.02-.47,1.76-.98,2.27-.63.63-1.61,1.32-3.33,1.32-2.66,0-4.74-2.14-4.74-4.8s2.08-4.8,4.74-4.8c1.43,0,2.48.56,3.25,1.29l1.27-1.27c-1.08-1.03-2.51-1.82-4.53-1.82-3.64,0-6.7,2.96-6.7,6.61s3.06,6.61,6.7,6.61c1.97,0,3.45-.64,4.61-1.85,1.19-1.19,1.56-2.87,1.56-4.22,0-.42-.03-.81-.1-1.13h-6.07ZM93.05,24.46c-.35-.95-1.43-2.71-3.64-2.71s-4.01,1.72-4.01,4.25c0,2.38,1.8,4.25,4.22,4.25,1.95,0,3.08-1.19,3.54-1.88l-1.45-.97c-.48.71-1.14,1.18-2.09,1.18s-1.63-.44-2.06-1.29l5.69-2.35-.19-.48ZM87.25,25.88c-.05-1.64,1.27-2.48,2.22-2.48.74,0,1.37.37,1.58.9l-3.8,1.58ZM82.63,30h1.87v-12.5h-1.87v12.5ZM79.57,22.7h-.06c-.42-.5-1.22-.95-2.24-.95-2.13,0-4.08,1.87-4.08,4.27s1.95,4.24,4.08,4.24c1.02,0,1.82-.45,2.24-.97h.06v.61c0,1.63-.87,2.5-2.27,2.5-1.14,0-1.85-.82-2.14-1.51l-1.63.68c.47,1.13,1.71,2.51,3.77,2.51,2.19,0,4.04-1.29,4.04-4.43v-7.64h-1.77v.69ZM77.42,28.58c-1.29,0-2.37-1.08-2.37-2.56s1.08-2.59,2.37-2.59,2.27,1.1,2.27,2.59-1,2.56-2.27,2.56ZM101.81,17.5h-4.47v12.5h1.87v-4.74h2.61c2.07,0,4.1-1.5,4.1-3.88s-2.03-3.88-4.1-3.88ZM101.85,23.52h-2.65v-4.29h2.65c1.4,0,2.19,1.16,2.19,2.14s-.79,2.14-2.19,2.14ZM113.39,21.73c-1.35,0-2.75.6-3.33,1.91l1.66.69c.35-.69,1.01-.92,1.7-.92.96,0,1.95.58,1.96,1.61v.13c-.34-.19-1.06-.48-1.95-.48-1.79,0-3.6.98-3.6,2.81,0,1.67,1.46,2.75,3.1,2.75,1.25,0,1.95-.56,2.38-1.22h.06v.97h1.8v-4.79c0-2.22-1.66-3.46-3.8-3.46ZM113.16,28.58c-.61,0-1.46-.31-1.46-1.06,0-.96,1.06-1.33,1.98-1.33.82,0,1.21.18,1.7.42-.14,1.16-1.14,1.98-2.22,1.98ZM123.74,22l-2.14,5.42h-.06l-2.22-5.42h-2.01l3.33,7.58-1.9,4.21h1.95l5.13-11.79h-2.07ZM106.94,30h1.87v-12.5h-1.87v12.5Z"/>
    <g>
      <path class="st0" d="M20.72,19.42l-10.65,11.3s0,0,0,0c.33,1.23,1.45,2.13,2.78,2.13.53,0,1.03-.14,1.46-.4l.03-.02,11.98-6.91-5.61-6.11Z"/>
      <path class="st3" d="M31.49,17.5h-.01s-5.17-3.01-5.17-3.01l-5.83,5.19,5.85,5.85,5.15-2.97c.9-.49,1.51-1.44,1.51-2.53s-.6-2.04-1.5-2.52Z"/>
      <path class="st4" d="M10.07,9.28c-.06.24-.1.48-.1.74v19.97c0,.26.03.5.1.74l11.01-11.01-11.01-10.44Z"/>
      <path class="st5" d="M20.8,20l5.51-5.51-11.97-6.94c-.43-.26-.94-.41-1.49-.41-1.33,0-2.45.91-2.78,2.13,0,0,0,0,0,0l10.73,10.72Z"/>
    </g>
  </g>
  <g>
    <path class="st1" d="M41.61,9.75h7.68v.25h-7.68v-.25ZM42.29,7.44h6.34v.26h-6.34v-.26ZM42.39,13.37s0-.05-.02-.09c-.01-.03-.02-.07-.03-.1-.01-.03-.03-.06-.04-.08.08-.01.17-.07.28-.18.1-.11.22-.25.35-.41.07-.08.18-.21.32-.39.14-.18.3-.39.48-.64.18-.25.36-.52.55-.81s.36-.58.52-.87l.25.09c-.25.42-.51.83-.77,1.23-.27.4-.54.78-.81,1.13-.27.35-.55.67-.83.96h0s-.09.04-.12.06c-.03.01-.06.03-.09.05-.02.02-.04.04-.04.07ZM42.39,13.37v-.19l.27-.15,5.45-.44s.01.07.03.12.02.08.03.11c-.86.07-1.59.13-2.21.18-.61.05-1.13.1-1.54.13s-.74.06-.99.09c-.25.02-.45.04-.58.06s-.23.03-.3.04c-.06.01-.11.03-.15.05ZM45.3,5.9h.26v3.91h-.26v-3.91ZM46.47,10.84l.2-.12c.27.28.55.59.82.92s.53.66.76.97c.23.32.41.6.54.85l-.23.15c-.13-.26-.32-.54-.54-.87-.23-.32-.48-.65-.75-.99s-.54-.64-.8-.92Z"/>
    <path class="st1" d="M50.25,6.95h7.53v.26h-7.53v-.26ZM50.82,8.66h6.31v.26h-6.05v4.81h-.26v-5.07ZM53.08,9.23l.25.1c-.14.17-.29.35-.47.53-.17.18-.35.35-.54.51-.18.16-.36.31-.53.44-.01-.02-.03-.04-.06-.06-.03-.02-.05-.04-.08-.07-.03-.02-.05-.04-.08-.05.27-.19.54-.41.8-.66.27-.25.5-.5.7-.75ZM52.14,7.43l.21-.1c.11.16.23.34.35.53.12.19.21.34.27.47l-.2.14c-.07-.13-.16-.3-.28-.5s-.23-.38-.35-.54ZM52.49,10.74h.25v2.31h-.25v-2.31ZM52.6,10.74h2.91v1.84h-2.91v-.25h2.64v-1.33h-2.64v-.26ZM53.63,5.96l.21-.07c.09.18.18.38.27.59.09.21.16.39.2.54l-.23.09c-.05-.15-.11-.33-.2-.55-.09-.22-.18-.42-.26-.6ZM54.68,9.4l.17-.18c.2.13.41.28.63.44s.43.32.63.47.36.29.49.4l-.16.23c-.13-.12-.3-.26-.5-.42-.2-.16-.41-.32-.63-.48-.22-.16-.43-.31-.64-.45ZM55.65,7.37l.28.1c-.14.23-.31.48-.49.73-.18.26-.34.47-.5.65l-.22-.09c.1-.12.21-.27.33-.43.12-.17.23-.33.33-.5.1-.17.19-.32.26-.46ZM56.96,8.66h.25v4.6c0,.11-.02.19-.06.25-.04.06-.11.1-.21.13-.1.02-.26.04-.47.04s-.53,0-.93,0c0-.03-.02-.07-.03-.12-.02-.04-.04-.09-.07-.13.22,0,.42,0,.6,0s.33,0,.46,0c.12,0,.21,0,.26,0,.08,0,.13-.02.16-.04.03-.02.04-.07.04-.14v-4.6Z"/>
    <path class="st1" d="M59.49,7.06h.26v2.34c0,.32-.01.66-.03,1.04-.02.37-.06.75-.12,1.14-.06.39-.15.77-.27,1.14-.12.37-.28.72-.47,1.04-.01-.02-.03-.03-.06-.05-.03-.02-.05-.03-.08-.05-.03-.02-.06-.03-.08-.03.19-.31.35-.65.46-1.01.12-.36.2-.73.26-1.1.06-.37.09-.74.11-1.1.02-.36.03-.7.03-1.01v-2.34ZM59.56,7.06h6.84v.25h-6.84v-.25ZM60.81,10.72h4.82v2.89h-.25v-2.64h-4.31v2.66h-.26v-2.91ZM60.96,13.02h4.61v.25h-4.61v-.25ZM62.45,6.05l.23-.1c.15.18.3.38.43.6.14.22.24.41.3.57l-.24.12c-.06-.17-.15-.36-.29-.59-.13-.22-.28-.42-.43-.6ZM62.82,7.65h.25v3.14h-.25v-3.14ZM62.95,8.91h3.11v.25h-3.11v-.25Z"/>
    <path class="st1" d="M67.57,6.56h7.68v.26h-7.68v-.26ZM71.11,6.64h.25v7.1h-.25v-7.1ZM71.28,8.66l.15-.17c.28.13.58.28.88.44.3.16.6.33.9.5.29.17.57.34.82.5.25.16.47.3.65.43l-.15.23c-.18-.13-.4-.28-.65-.44-.25-.16-.53-.33-.82-.5-.29-.17-.59-.34-.9-.51-.3-.17-.6-.32-.88-.46Z"/>
    <path class="st1" d="M76.24,7.96h7.68v.25h-7.68v-.25ZM76.35,12.49c.36-.03.78-.08,1.27-.13s1.01-.1,1.57-.17c.56-.06,1.12-.12,1.69-.19v.25c-.55.06-1.09.12-1.64.18-.55.06-1.07.12-1.56.17-.49.06-.92.11-1.29.15l-.04-.28ZM76.38,9.29h4.49v.26h-4.49v-.26ZM76.7,6.71h3.77v.25h-3.77v-.25ZM76.89,11.17s-.01-.05-.02-.09-.02-.07-.03-.1c0-.03-.02-.06-.04-.09.06-.01.12-.06.17-.14.06-.08.12-.19.18-.31.05-.08.12-.23.23-.45.11-.22.22-.48.34-.77s.22-.59.31-.88l.28.08c-.11.32-.23.63-.36.94-.13.31-.26.6-.4.88-.14.28-.28.53-.43.75h0s-.09.05-.12.07-.06.04-.09.06c-.02.02-.03.04-.03.06ZM76.89,11.17v-.25l.26-.11h3.48v.26h-3.06c-.2,0-.35.01-.46.03s-.18.04-.22.07ZM78.55,5.9h.26v2.15h-.26v-2.15ZM78.81,9.91h.26v3.8h-.26v-3.8ZM83.16,8.73l.23.08c-.19.63-.42,1.26-.71,1.87s-.62,1.19-1,1.71c-.38.52-.81.96-1.29,1.32-.03-.02-.06-.05-.1-.08-.04-.03-.08-.06-.11-.08.47-.35.9-.78,1.28-1.3.38-.52.72-1.08,1-1.68s.52-1.22.7-1.84ZM81.13,5.92h.27c0,.92.03,1.76.08,2.54.05.78.14,1.47.24,2.08.11.61.24,1.13.39,1.56s.33.76.54.98.43.33.67.33c.13,0,.23-.12.29-.35.06-.23.1-.63.13-1.19.03.02.07.05.12.07.05.02.09.04.13.05-.02.42-.05.75-.1,1s-.11.42-.2.53-.22.16-.38.16c-.25,0-.48-.09-.68-.26s-.38-.42-.54-.75-.29-.72-.41-1.18c-.12-.46-.22-.98-.3-1.56s-.14-1.2-.18-1.87c-.04-.67-.06-1.38-.07-2.13ZM82.1,6.32l.17-.14c.14.09.29.2.44.32.15.12.29.24.41.36.13.12.23.23.3.34l-.17.16c-.11-.15-.27-.32-.49-.52-.22-.2-.44-.37-.66-.51Z"/>
  </g>
</svg>