<svg xmlns="http://www.w3.org/2000/svg" width="199.344" height="59.392" viewBox="0 0 199.344 59.392">
  <defs>
    <style>
      .cls-1, .cls-4 {
        fill: #fff;
      }

      .cls-1 {
        stroke: #231815;
        stroke-width: 2px;
      }

      .cls-2 {
        fill: #231815;
      }

      .cls-3 {
        fill: #c8102e;
      }
    </style>
  </defs>
  <g id="组_1" data-name="组 1" transform="translate(-477.297 -552.314)">
    <path id="路径_190" data-name="路径 190" class="cls-1" d="M614.785,222.9c-.451,0-.891-.006-1.338-.016a18.846,18.846,0,0,1-2.767-.241,8.751,8.751,0,0,1-2.453-.811,7.992,7.992,0,0,1-2.068-1.5,7.866,7.866,0,0,1-1.51-2.067,8.458,8.458,0,0,1-.8-2.454,18.512,18.512,0,0,1-.247-2.775c-.009-.312-.021-1.351-.021-1.351V176.708s.013-1.024.021-1.324a18.4,18.4,0,0,1,.246-2.772,8.509,8.509,0,0,1,.8-2.46,7.952,7.952,0,0,1,1.5-2.07,8.245,8.245,0,0,1,2.076-1.513,8.615,8.615,0,0,1,2.448-.805,18.6,18.6,0,0,1,2.776-.243l1.336-.018h174.93l1.351.019a18.2,18.2,0,0,1,2.751.241,8.806,8.806,0,0,1,2.474.81,8.287,8.287,0,0,1,3.575,3.582,8.55,8.55,0,0,1,.792,2.441,19.108,19.108,0,0,1,.257,2.793c0,.419,0,.87,0,1.318.011.554.011,1.083.011,1.615v31.752c0,.538,0,1.062-.011,1.591,0,.482,0,.923-.006,1.376a18.847,18.847,0,0,1-.253,2.744,8.492,8.492,0,0,1-.8,2.472,8.332,8.332,0,0,1-3.574,3.565,8.7,8.7,0,0,1-2.47.814,18.641,18.641,0,0,1-2.766.241c-.434.01-.888.016-1.329.016h-1.6Z" transform="translate(-125.284 387.811)"/>
    <g id="组_184" data-name="组 184" transform="translate(490.1 562.878)">
      <g id="组_181" data-name="组 181" transform="translate(49.367 15.731)">
        <path id="路径_191" data-name="路径 191" class="cls-2" d="M675.975,204.546h-6.939l-1.7,4.641h-3.051l6.794-17.334h2.884l6.949,17.334h-3.2Zm-6.065-2.357h5.18l-1.855-4.965q-.382-1.029-.754-2.273-.336,1.1-.729,2.249Z" transform="translate(-664.288 -190.597)"/>
        <path id="路径_192" data-name="路径 192" class="cls-2" d="M682.157,199.407q0-1.437-.095-3.159h2.775a14.051,14.051,0,0,1,.215,1.639A5.23,5.23,0,0,1,689,196.009a4.451,4.451,0,0,1,4.17,2.709,8.248,8.248,0,0,1,.676,3.571,8.831,8.831,0,0,1-.773,3.864,5.516,5.516,0,0,1-2.158,2.429,6.163,6.163,0,0,1-3.206.825,7.888,7.888,0,0,1-2.6-.443V214.3l-2.955.252Zm7.77,6.6a5.883,5.883,0,0,0,.9-3.547,5.2,5.2,0,0,0-.748-3.141,2.386,2.386,0,0,0-1.992-.974,3.212,3.212,0,0,0-1.591.406,5.99,5.99,0,0,0-1.388,1.089v6.914a4.477,4.477,0,0,0,1.028.342,5.537,5.537,0,0,0,1.162.125A3.07,3.07,0,0,0,689.926,206Z" transform="translate(-664.152 -190.566)"/>
        <path id="路径_193" data-name="路径 193" class="cls-2" d="M695.634,199.407q0-1.437-.1-3.159h2.775a13.791,13.791,0,0,1,.216,1.639,5.228,5.228,0,0,1,3.948-1.878,4.451,4.451,0,0,1,4.17,2.709,8.252,8.252,0,0,1,.676,3.571,8.834,8.834,0,0,1-.773,3.864,5.525,5.525,0,0,1-2.159,2.429,6.158,6.158,0,0,1-3.205.825,7.883,7.883,0,0,1-2.6-.443V214.3l-2.955.252Zm7.77,6.6a5.892,5.892,0,0,0,.9-3.547,5.206,5.206,0,0,0-.748-3.141,2.384,2.384,0,0,0-1.991-.974,3.214,3.214,0,0,0-1.592.406,5.976,5.976,0,0,0-1.387,1.089v6.914a4.458,4.458,0,0,0,1.028.342,5.536,5.536,0,0,0,1.161.125A3.072,3.072,0,0,0,703.4,206Z" transform="translate(-664.049 -190.566)"/>
        <path id="路径_194" data-name="路径 194" class="cls-2" d="M712.8,208.37a7.169,7.169,0,0,1-2.943-3.032,9.968,9.968,0,0,1-1.029-4.666,9.727,9.727,0,0,1,1.184-4.959,7.629,7.629,0,0,1,3.224-3.062,10.06,10.06,0,0,1,4.576-1.023,12.1,12.1,0,0,1,2.853.328,12.355,12.355,0,0,1,2.531.9l-.754,2.273a10.471,10.471,0,0,0-4.5-1.124,6.288,6.288,0,0,0-3.164.772,5.239,5.239,0,0,0-2.112,2.267,7.961,7.961,0,0,0-.754,3.613,8.723,8.723,0,0,0,.58,3.289,4.859,4.859,0,0,0,1.83,2.273,5.551,5.551,0,0,0,3.152.837,10.448,10.448,0,0,0,1.723-.143,9,9,0,0,0,1.615-.419v-3.506H716.8v-2.3h6.878v7.3a15.4,15.4,0,0,1-3.116,1.065,14.647,14.647,0,0,1-3.249.371,9.188,9.188,0,0,1-4.513-1.054Z" transform="translate(-663.948 -190.599)"/>
        <path id="路径_195" data-name="路径 195" class="cls-2" d="M734.2,209.156a11.221,11.221,0,0,1-.2-1.71,5.709,5.709,0,0,1-1.778,1.381,5.277,5.277,0,0,1-2.47.568,4.664,4.664,0,0,1-2.028-.436,3.383,3.383,0,0,1-1.453-1.317,4.027,4.027,0,0,1-.538-2.146,3.694,3.694,0,0,1,1.351-3q1.353-1.118,4.51-1.118a16.355,16.355,0,0,1,2.345.168V201.3a3.251,3.251,0,0,0-.73-2.41,2.9,2.9,0,0,0-2.093-.7,8.142,8.142,0,0,0-2.021.276,10.666,10.666,0,0,0-1.89.657l-.467-2.153a11.367,11.367,0,0,1,2.082-.658,12.116,12.116,0,0,1,2.728-.3,7.144,7.144,0,0,1,2.846.508,3.737,3.737,0,0,1,1.831,1.746,7.143,7.143,0,0,1,.658,3.332v5.132q0,.8.1,2.428Zm-1.77-2.392a4.743,4.743,0,0,0,1.507-1.1V203.27a18.983,18.983,0,0,0-1.974-.131,4.017,4.017,0,0,0-2.53.591,1.986,1.986,0,0,0-.7,1.6,1.821,1.821,0,0,0,.508,1.418,1.982,1.982,0,0,0,1.382.46,4.148,4.148,0,0,0,1.806-.445Z" transform="translate(-663.819 -190.566)"/>
        <path id="路径_196" data-name="路径 196" class="cls-2" d="M739.36,206.1V190.846l2.942-.239v14.965a1.849,1.849,0,0,0,.282,1.166,1.086,1.086,0,0,0,.891.342,3.326,3.326,0,0,0,.778-.132l.348,2.118a5.037,5.037,0,0,1-1.024.269,6.915,6.915,0,0,1-1.143.1Q739.36,209.437,739.36,206.1Z" transform="translate(-663.715 -190.607)"/>
        <path id="路径_197" data-name="路径 197" class="cls-2" d="M746.662,206.1V190.846l2.942-.239v14.965a1.856,1.856,0,0,0,.281,1.166,1.089,1.089,0,0,0,.892.342,3.326,3.326,0,0,0,.778-.132l.347,2.118a5.012,5.012,0,0,1-1.023.269,6.934,6.934,0,0,1-1.143.1Q746.662,209.437,746.662,206.1Z" transform="translate(-663.659 -190.607)"/>
        <path id="路径_198" data-name="路径 198" class="cls-2" d="M764.107,203.079h-8.446q.2,4.055,3.864,4.056a8.16,8.16,0,0,0,1.86-.222,11,11,0,0,0,1.825-.592l.646,2.022a10.986,10.986,0,0,1-4.869,1.053,7.105,7.105,0,0,1-3.47-.778,4.99,4.99,0,0,1-2.123-2.237,7.956,7.956,0,0,1-.711-3.518,8.315,8.315,0,0,1,.754-3.684,5.482,5.482,0,0,1,2.1-2.357,5.879,5.879,0,0,1,3.1-.813,5.217,5.217,0,0,1,3.057.855,5.114,5.114,0,0,1,1.819,2.278,8.131,8.131,0,0,1,.592,3.146Zm-2.884-1.878a3.67,3.67,0,0,0-.777-2.315,2.369,2.369,0,0,0-1.854-.772,2.488,2.488,0,0,0-1.872.778,4.121,4.121,0,0,0-.975,2.308Z" transform="translate(-663.614 -190.566)"/>
        <path id="路径_199" data-name="路径 199" class="cls-2" d="M766.384,199.49q0-1.066-.1-3.243h2.763q.072.538.138,1.286t.09,1.214a10.858,10.858,0,0,1,1.01-1.429,4.131,4.131,0,0,1,1.161-.945,3.081,3.081,0,0,1,1.512-.365,4.216,4.216,0,0,1,1.173.143l-.371,2.56a3.267,3.267,0,0,0-.957-.132,3.144,3.144,0,0,0-1.819.533,7.323,7.323,0,0,0-1.661,1.752v8.29H766.38Z" transform="translate(-663.51 -190.566)"/>
        <path id="路径_200" data-name="路径 200" class="cls-2" d="M775.843,214.436a7.2,7.2,0,0,1-1.065-.257l.539-2.153c.2.055.45.109.754.161a5.157,5.157,0,0,0,.861.078q1.962,0,2.943-2.524l.19-.479-4.76-13.016h3.169l2.393,7.274a23.361,23.361,0,0,1,.754,2.859q.336-1.4.79-2.8l2.428-7.334h2.979l-4.749,13.075a13.384,13.384,0,0,1-1.448,2.992A5.056,5.056,0,0,1,779.785,214a5.471,5.471,0,0,1-2.555.551,8.035,8.035,0,0,1-1.387-.115Z" transform="translate(-663.445 -190.564)"/>
      </g>
      <g id="组_182" data-name="组 182" transform="translate(49.353)">
        <path id="路径_201" data-name="路径 201" class="cls-2" d="M664.274,175.119H669.6l-.15,1.287h-3.617V178.9h3.411v1.2h-3.411v2.761h3.812l-.132,1.3h-5.241Z" transform="translate(-664.274 -174.994)"/>
        <path id="路径_202" data-name="路径 202" class="cls-2" d="M673.23,179.549l-2.811-4.43h1.774l1.9,3.255,2.006-3.255h1.725l-2.787,4.373,3.017,4.672h-1.8L674.1,180.6l-2.193,3.56h-1.724Z" transform="translate(-664.229 -174.994)"/>
        <path id="路径_203" data-name="路径 203" class="cls-2" d="M679.141,175.119h2.437a4.251,4.251,0,0,1,2.629.7,2.394,2.394,0,0,1,.912,2.023,2.959,2.959,0,0,1-.408,1.572,2.7,2.7,0,0,1-1.141,1.031,3.772,3.772,0,0,1-1.681.359,6.592,6.592,0,0,1-1.186-.125v3.485h-1.562Zm3.916,4.039a1.634,1.634,0,0,0,.5-1.277,1.387,1.387,0,0,0-.509-1.206,2.538,2.538,0,0,0-1.5-.369H680.7v3.211a6.155,6.155,0,0,0,.9.094,2.093,2.093,0,0,0,1.457-.453Z" transform="translate(-664.16 -174.994)"/>
        <path id="路径_204" data-name="路径 204" class="cls-2" d="M686.6,175.119h1.561v7.709H691.9l-.132,1.336H686.6Z" transform="translate(-664.104 -174.994)"/>
        <path id="路径_205" data-name="路径 205" class="cls-2" d="M694.24,183.722a3.772,3.772,0,0,1-1.517-1.6,5.173,5.173,0,0,1-.526-2.389,5.333,5.333,0,0,1,.56-2.5,3.925,3.925,0,0,1,1.612-1.655,5.039,5.039,0,0,1,2.483-.584,4.655,4.655,0,0,1,2.354.565,3.729,3.729,0,0,1,1.506,1.59,5.189,5.189,0,0,1,.518,2.374,5.364,5.364,0,0,1-.564,2.53,3.961,3.961,0,0,1-1.612,1.656,4.988,4.988,0,0,1-2.458.58,4.664,4.664,0,0,1-2.356-.567Zm4.048-1.108a2.664,2.664,0,0,0,.981-1.212,4.511,4.511,0,0,0,.324-1.764,4.907,4.907,0,0,0-.287-1.737,2.58,2.58,0,0,0-.918-1.215,2.726,2.726,0,0,0-1.624-.452,2.765,2.765,0,0,0-1.612.458,2.8,2.8,0,0,0-.993,1.231,4.255,4.255,0,0,0-.331,1.7,4.654,4.654,0,0,0,.312,1.755,2.676,2.676,0,0,0,.955,1.225,2.718,2.718,0,0,0,1.593.449,2.8,2.8,0,0,0,1.6-.438Z" transform="translate(-664.061 -174.995)"/>
        <path id="路径_206" data-name="路径 206" class="cls-2" d="M702.892,175.119h2.829a3.777,3.777,0,0,1,2.346.619,2.106,2.106,0,0,1,.8,1.768,2.666,2.666,0,0,1-.287,1.265,2.776,2.776,0,0,1-.713.89,3.145,3.145,0,0,1-.874.513l2.781,3.991h-1.813l-2.355-3.585h-1.15v3.585H702.9Zm2.447,4.279a2.193,2.193,0,0,0,1.007-.222,1.655,1.655,0,0,0,.681-.625,1.77,1.77,0,0,0,.243-.934,1.153,1.153,0,0,0-.43-1,2.115,2.115,0,0,0-1.255-.315h-1.132v3.1Z" transform="translate(-663.979 -174.994)"/>
        <path id="路径_207" data-name="路径 207" class="cls-2" d="M710.945,175.119h5.328l-.149,1.287h-3.617V178.9h3.411v1.2h-3.411v2.761h3.811l-.131,1.3h-5.242Z" transform="translate(-663.918 -174.994)"/>
        <path id="路径_208" data-name="路径 208" class="cls-2" d="M721.986,175.119h1.562v9.045h-1.562Z" transform="translate(-663.834 -174.994)"/>
        <path id="路径_209" data-name="路径 209" class="cls-2" d="M727.656,176.425h-2.8l.137-1.306h7.042l-.145,1.306h-2.666v7.74h-1.562Z" transform="translate(-663.812 -174.994)"/>
        <path id="路径_210" data-name="路径 210" class="cls-2" d="M738.715,183.722a3.779,3.779,0,0,1-1.518-1.6,5.187,5.187,0,0,1-.525-2.389,5.322,5.322,0,0,1,.56-2.5,3.927,3.927,0,0,1,1.611-1.655,5.043,5.043,0,0,1,2.483-.584,4.659,4.659,0,0,1,2.355.565,3.737,3.737,0,0,1,1.505,1.59,5.177,5.177,0,0,1,.519,2.374,5.362,5.362,0,0,1-.565,2.53,3.958,3.958,0,0,1-1.611,1.656,4.992,4.992,0,0,1-2.458.58,4.669,4.669,0,0,1-2.356-.567Zm4.049-1.108a2.662,2.662,0,0,0,.98-1.212,4.508,4.508,0,0,0,.325-1.764,4.906,4.906,0,0,0-.287-1.737,2.589,2.589,0,0,0-.919-1.215,2.727,2.727,0,0,0-1.624-.452,2.763,2.763,0,0,0-1.611.458,2.813,2.813,0,0,0-.994,1.231,4.252,4.252,0,0,0-.332,1.7,4.652,4.652,0,0,0,.313,1.755,2.67,2.67,0,0,0,.955,1.225,2.718,2.718,0,0,0,1.593.449,2.806,2.806,0,0,0,1.6-.438Z" transform="translate(-663.722 -174.995)"/>
        <path id="路径_211" data-name="路径 211" class="cls-2" d="M747.368,175.119h1.794l4.472,7.009q-.056-1-.056-1.843v-5.166h1.45v9.045H753.29l-4.541-7.121q.068,1.212.07,2.148v4.973h-1.45Z" transform="translate(-663.64 -174.994)"/>
      </g>
      <g id="组_183" data-name="组 183" transform="translate(0 0.052)">
        <path id="形状_1_拷贝_25" data-name="形状 1 拷贝 25" class="cls-3" d="M10.736,0C2.876,0,0,2.875,0,10.735V27.423c0,7.86,2.876,10.735,10.735,10.735H27.418c7.861,0,10.74-2.876,10.74-10.735V10.735C38.158,2.875,35.283,0,27.423,0Z"/>
        <path id="路径_213" data-name="路径 213" class="cls-4" d="M622.819,193.985h1.012v4.989h-1.012v-2.026h-2.285v2.026h-1.013v-4.989h1.013V196h2.285Zm5.7,2.856c0,.811-.4,1.244-1.134,1.244s-1.141-.446-1.141-1.28v-2.818h-1.013v2.854a1.979,1.979,0,0,0,2.139,2.208,2.008,2.008,0,0,0,2.159-2.25v-2.813h-1.012Zm11.7.574-1.133-3.431h-.826l-1.133,3.431-1.1-3.428H634.95l1.738,4.987h.838l1.135-3.276,1.133,3.276h.846l1.734-4.987h-1.049Zm3.968-.588h1.841v-.908h-1.841V194.9h2.673v-.909h-3.672v4.983h3.768v-.909h-2.769Zm3.976,2.14h1v-4.982h-1Zm-16.63-1.035-.454,1.039h-1.033l2.2-4.986h.893l2.189,4.986h-1.061l-.448-1.039Zm.376-.9h1.531l-.768-1.785Z" transform="translate(-615.263 -174.902)"/>
        <path id="路径_214" data-name="路径 214" class="cls-4" d="M634.278,187.729a6.359,6.359,0,0,1-6.352-6.352h.9a5.454,5.454,0,1,0,10.909,0h.9A6.359,6.359,0,0,1,634.278,187.729Z" transform="translate(-615.198 -174.999)"/>
      </g>
    </g>
  </g>
</svg>
